<svg width="18" height="10" viewBox="0 0 18 10" xmlns="http://www.w3.org/2000/svg"><path d="M17.334 2.082l-.858-.108c-.132-.021-.506.344-.572.387a.623.623 0 0 0-.175.15c-.264-.344-1.474-1.996-1.716-2.146-.285-.172-.637-.344-.901-.365H4.58c-.263.021-.615.193-.901.365-.242.15-1.451 1.802-1.715 2.146a.623.623 0 0 0-.176-.15c-.066-.043-.44-.408-.572-.387l-.857.108c-.22.021-.396.236-.352.45.022.129.11.236.22.3.066.044 1.275.258 1.275.258a.402.402 0 0 0 .44-.193l.066.58v.171c-.418.086-1.342.343-1.473.665C.447 4.528.49 6.416.49 6.416c0 .258.065.494.285.644 0 .022-.066.022-.066.043v2.34c.022.342.396.557.77.557h1.363c.374 0 .748-.215.748-.58v-.708l1.517.086.198.108h7.08l.198-.108 1.517-.086v.709c0 .364.374.579.748.579h1.363c.374 0 .748-.215.77-.558V7.103c0-.021-.066-.021-.066-.043.22-.15.286-.386.286-.644 0 0 .044-1.888-.044-2.103-.132-.322-1.056-.58-1.473-.665v-.172l.066-.579c.087.15.263.236.44.193 0 0 1.209-.214 1.275-.257a.444.444 0 0 0 .22-.3c.043-.215-.132-.43-.352-.451zM4.976 6.845S2.096 5.644 1.81 5.472c-.11-.064-.132-.15-.11-.236.044-.172.308-.322.308-.322s2.243.28 2.704.43c.462.15.77.75.748 1.158-.022.386-.484.343-.484.343zm-2.77-3.24s-.022 0-.088.022v-.28a136.6 136.6 0 0 0 1.56-2.167c.22-.3.968-.644.968-.644h8.4s.748.344.967.644c.176.258 1.21 1.674 1.562 2.168v.279c-.044 0-.088-.022-.088-.022H2.206zm13.786 1.631c.022.086 0 .172-.11.236-.285.172-3.166 1.373-3.166 1.373s-.462.043-.484-.343c-.022-.408.286-1.008.748-1.159.462-.15 2.705-.429 2.705-.429s.263.15.307.322z" fill="#FFF" fill-rule="nonzero"/></svg>