<svg width="174" height="25" viewBox="0 0 174 25" xmlns="http://www.w3.org/2000/svg" xmlns:xlink="http://www.w3.org/1999/xlink"><defs><path id="a" d="M.012.165h22.781v14.579H.012z"/><path id="c" d="M0 .013h168.695V8H0z"/></defs><g fill="none" fill-rule="evenodd"><path d="M70.761 10.32l1.7-5.7H80.489c.38 0 .634.059.779.173a.397.397 0 0 1 .125.451l-.26.86-.413 1.387-.384 1.29-.274.915c-.053.186-.188.337-.395.451-.206.117-.5.174-.88.174h-8.025zm-.567 2.582h8.247c1.365 0 2.45-.252 3.263-.756.813-.504 1.366-1.243 1.654-2.213.01-.027.168-.554.47-1.582l.543-1.817c.308-1.016.462-1.54.471-1.565.289-.974.183-1.709-.331-2.213C84 2.252 83.064 2 81.699 2H69.66l-3.258 10.902h3.792zm-14.102-2.539l.544-1.804h9.112l.658-2.205h-9.112l.548-1.831h9.708L68.305 2H54.736l-3.258 10.902h13.569l.759-2.539h-9.714zM38.185 4.62l.017.097 5.06 8.143h6.246L52.758 2h-3.639l-2.456 8.223-.022-.137L41.626 2h-6.294l-3.244 10.86h3.634l2.463-8.24zM18.35 2l-2.311 7.738c-.147.492-.212.907-.192 1.25.016.34.148.66.398.955.262.28.498.483.707.612.206.13.51.226.903.292.395.064.957.106 1.687.123.728.02 1.844.03 3.343.03 1.512 0 2.634-.01 3.37-.03.734-.017 1.318-.06 1.753-.123.433-.066.786-.16 1.06-.286.274-.125.632-.33 1.074-.618.425-.294.748-.614.97-.955.222-.343.407-.758.556-1.25L33.98 2h-3.793l-2.171 7.268c-.063.212-.222.386-.464.519-.243.135-.598.201-1.06.201h-5.48c-.427 0-.725-.066-.888-.201-.166-.133-.216-.307-.154-.519L22.142 2H18.35zm-7.065 2.523h5.256L17.298 2H2.755L2 4.523h5.428l-2.503 8.38H8.78l2.504-8.38z" fill="#00ACD8"/><g transform="translate(85)"><mask id="b" fill="#fff"><use xlink:href="#a"/></mask><path d="M4.992.165l-.99 3.318h11.56c.56.012.984.038 1.285.076.3.038.52.1.658.193.144.096.215.238.225.43.005.192-.043.463-.153.811-.171.586-.52.961-1.05 1.127-.53.169-1.408.278-2.636.327-.2.015-.625.035-1.275.067-.648.03-1.284.065-1.9.101-.616.038-1.413.085-2.387.141-.974.055-1.7.101-2.172.14-.918.05-1.714.235-2.388.56a5.768 5.768 0 0 0-1.145.8c-.25.261-.436.472-.564.634-.124.16-.235.333-.33.512a5.31 5.31 0 0 0-.286.672c-.091.267-.224.68-.391 1.239L.012 14.744h19.394l.984-3.3H5.598c.195-.658.491-1.081.888-1.267.19-.088.41-.147.654-.179.238-.03.635-.065 1.18-.1.515-.026.91-.051 1.188-.075.516-.037 1.17-.082 1.963-.13 1.375-.089 2.445-.16 3.208-.217.764-.055 1.442-.108 2.034-.158.86-.049 1.595-.165 2.206-.343a3.853 3.853 0 0 0 1.556-.869l.335-.334a.99.99 0 0 0 .152-.169c.072-.086.115-.141.134-.168.473-.584.898-1.508 1.275-2.777.244-.808.382-1.472.415-1.995.038-.522-.08-.968-.348-1.341-.268-.373-.75-.66-1.447-.86C20.3.265 19.335.165 18.093.165H4.992z" fill="#888" mask="url(#b)"/></g><path d="M161.888 10.477l.534-1.794h9.038l.653-2.19h-9.038l.543-1.82h9.634L174 2.166h-13.456L157.312 13h13.456l.753-2.523h-9.633zm-19.09-2.042c-.301 1.013-.458 1.536-.468 1.572-.295.983-.19 1.728.305 2.233.505.507 1.43.76 2.784.76h10.554l.776-2.62H146.62c-.376 0-.63-.06-.768-.18-.133-.12-.176-.28-.113-.481l.21-.854.762-2.566.314-.894c.052-.166.182-.303.392-.415.21-.11.495-.164.862-.164h10.13l.79-2.66h-10.548c-1.354 0-2.432.253-3.232.758-.8.505-1.354 1.254-1.65 2.247-.009.025-.161.545-.462 1.555l-.51 1.71zM138.25 4.99c.286.03.52.084.7.167l.077.069.09.11.081.193-.033.165-.124.426a2.73 2.73 0 0 1-.11.303h-8.427l.005-.124.071-.248c.067-.248.148-.449.248-.606.367-.303.767-.455 1.196-.455h6.226zM134.036 2a.735.735 0 0 1-.239.015h-1.01a1.17 1.17 0 0 1-.3.012l-.63.013c-.076.01-.171.015-.286.015a3.563 3.563 0 0 1-.395.027l-.086.014-.21.013-.128.028-.424.054-.081.015-.491.124c-.84.33-1.53.758-2.084 1.282l-.076.097a2.903 2.903 0 0 0-.205.263 1.359 1.359 0 0 0-.152.26l-.12.194-.042.082c-.029.11-.072.202-.115.276l-.057.194c-.029.073-.052.132-.067.179l-2.316 7.773h4.009l1.3-4.356.144-.013 8.332.013-1.296 4.356h4.022l2.355-7.897-.014-.055.062-.209-.005-.025.057-.248-.01-.03c.063-.412.016-.766-.147-1.06l-.024-.028c-.043-.073-.072-.124-.1-.151a.633.633 0 0 0-.157-.194l-.271-.246-.692-.457-.357-.11-.072-.014a5.385 5.385 0 0 1-.181-.027l-.133-.028-.449-.055a1.282 1.282 0 0 0-.353-.027l-.071-.014-.248-.015h-.343a2.19 2.19 0 0 0-.4-.013L134.036 2zm-14.429 5.099h-5.491L119.74 13h4.242l-3.866-3.847.02-.055c.728 0 1.353-.065 1.877-.194a3.79 3.79 0 0 0 1.345-.605 3.69 3.69 0 0 0 .963-1.088c.266-.45.505-1.009.7-1.67.196-.66.277-1.207.229-1.639-.043-.431-.205-.774-.496-1.027-.29-.252-.7-.433-1.244-.545-.539-.11-1.24-.164-2.102-.164h-10.177L108 13h3.823l2.426-8.134h6.073c.377 0 .672.103.887.312.224.206.286.469.19.79a1.412 1.412 0 0 1-.69.843 2.228 2.228 0 0 1-1.102.288z" fill="#00ACD8"/><g transform="translate(0 17)"><mask id="d" fill="#fff"><use xlink:href="#c"/></mask><path d="M162.946.698c-.685.456-1.213 1.098-1.589 1.927a5.191 5.191 0 0 0-.461 2.157c0 1.12.361 1.976 1.08 2.565.532.433 1.288.648 2.282.648.637 0 1.26-.091 1.874-.275a6.425 6.425 0 0 0 1.555-.667l.719-3.311h-3.582l-.28 1.288h2.045l-.247 1.148c-.267.133-.59.25-.962.343-.37.097-.732.147-1.084.147-.594 0-1.041-.153-1.346-.465-.304-.312-.461-.79-.461-1.441 0-.66.129-1.27.38-1.827.248-.56.595-.97 1.042-1.238a2.79 2.79 0 0 1 1.465-.399c.452 0 .832.108 1.136.33.296.223.514.55.647.986l1.536-.17c-.18-.793-.551-1.395-1.108-1.808-.56-.414-1.303-.623-2.23-.623-.923 0-1.726.23-2.411.685zm-54.084 0c-.68.456-1.208 1.098-1.584 1.927a5.201 5.201 0 0 0-.461 2.157c0 1.12.361 1.976 1.08 2.565.532.433 1.288.648 2.278.648a6.53 6.53 0 0 0 1.879-.275 6.425 6.425 0 0 0 1.554-.667l.723-3.311h-3.586l-.28 1.288h2.045l-.247 1.148c-.267.133-.59.25-.961.343a4.325 4.325 0 0 1-1.09.147c-.59 0-1.036-.153-1.34-.465-.305-.312-.457-.79-.457-1.441 0-.66.123-1.27.376-1.827.252-.56.594-.97 1.04-1.238a2.804 2.804 0 0 1 1.465-.399c.457 0 .833.108 1.133.33.3.223.518.55.651.986l1.536-.17c-.18-.793-.552-1.395-1.113-1.808-.556-.414-1.297-.623-2.225-.623-.923 0-1.731.23-2.416.685zM74.79.593a3.949 3.949 0 0 0-1.536 1.67c-.372.73-.557 1.531-.557 2.411 0 1.078.276 1.903.828 2.473.551.569 1.317.853 2.297.853.87 0 1.631-.229 2.278-.687.647-.46 1.136-1.121 1.46-1.988l-1.664-.243c-.172.525-.439.92-.795 1.185a1.882 1.882 0 0 1-1.17.401c-.457 0-.841-.17-1.15-.506-.305-.337-.462-.814-.462-1.43 0-.569.119-1.132.357-1.7.237-.565.551-.982.946-1.25a2.25 2.25 0 0 1 1.275-.401c.418 0 .747.103.999.303.251.201.418.527.503.976l1.579-.147c-.095-.77-.409-1.382-.946-1.829C78.5.238 77.801.013 76.931.013a4.14 4.14 0 0 0-2.14.58zM32.86.448a4.087 4.087 0 0 0-1.44 1.18c-.38.5-.662 1.09-.848 1.765a5.306 5.306 0 0 0-.214 1.442c0 .493.107.978.317 1.46.21.486.57.89 1.074 1.214.509.329 1.134.49 1.88.49.86 0 1.63-.204 2.312-.616.68-.41 1.22-.997 1.617-1.757.397-.761.595-1.55.595-2.365 0-.98-.302-1.765-.916-2.359-.609-.591-1.407-.89-2.4-.89-.739 0-1.4.145-1.978.436zm-.371 5.689c-.336-.358-.505-.803-.505-1.332 0-.866.254-1.657.759-2.379.504-.724 1.158-1.086 1.964-1.086.523 0 .956.172 1.293.518.339.346.51.823.51 1.43 0 .543-.136 1.105-.402 1.675-.27.578-.607 1.004-1.016 1.286-.41.282-.837.424-1.282.424-.547 0-.986-.179-1.321-.536zM158.832.146l-1.123 5.163-2.163-5.163h-1.542l-1.673 7.717h1.536l1.122-5.187 2.164 5.187h1.536l1.67-7.717h-1.527zm-8.052 0l-1.674 7.717h1.65l1.67-7.717h-1.646zm-7.97 0l-1.675 7.717h1.646l.694-3.196h.676c.39 0 .66.051.817.154.257.17.495.507.719 1.004.414.924.694 1.602.837 2.038h1.769c-.452-1.1-.861-1.956-1.227-2.558a3.11 3.11 0 0 0-.594-.722c.822-.101 1.44-.367 1.85-.793.409-.426.613-.967.613-1.625 0-.459-.105-.85-.314-1.173a1.62 1.62 0 0 0-.827-.667c-.343-.12-.819-.18-1.428-.18h-3.557zm1.364 1.29h1.812c.486 0 .799.042.951.124.233.142.353.35.353.635 0 .236-.086.463-.248.683-.162.217-.39.378-.68.479-.29.103-.875.15-1.76.15h-.875l.447-2.071zM135.31.146l-1.669 7.717h6.254l.28-1.291h-4.655l.499-2.094h4.147l.276-1.29h-4.142l.385-1.752h4.285l.28-1.29h-5.94zm-7.462 0l-1.669 7.717h6.254l.285-1.291h-4.661l.504-2.094h4.143l.28-1.29h-4.146l.385-1.752h4.284l.281-1.29h-5.94zm-3.204 0l-1.124 5.163-2.163-5.163h-1.541l-1.67 7.717h1.532l1.126-5.187 2.165 5.187h1.531l1.674-7.717h-1.53zm-8.048 0l-1.674 7.717h1.645L118.24.146h-1.645zm-11.842 0l-1.123 5.163-2.168-5.163h-1.537l-1.669 7.717h1.531l1.123-5.187 2.164 5.187h1.537l1.673-7.717h-1.531zm-12.332 0l-1.674 7.717H97l.285-1.291h-4.661l.505-2.094h4.146l.276-1.29h-4.147l.386-1.752h4.284l.282-1.29H92.42zm-10.573 0l-1.673 7.717h6.258l.28-1.291h-4.655l.5-2.094h4.147l.28-1.29h-4.148l.38-1.752h4.291l.276-1.29h-5.936zm-11.285 0l-1.118 5.163L67.276.146h-1.54l-1.675 7.717h1.537l1.127-5.187 2.159 5.187h1.536L72.094.146h-1.531zm-10.677 0l-4.528 7.717h1.693l.961-1.706h3.177l.261 1.706h1.565L61.716.146h-1.83zm.632 1.62l.462 3.105h-2.397l1.935-3.105zM53.613.146l-2.73 5.407-.247-5.407h-2.348l-1.673 7.717H48.1l1.275-6.45.29 6.45h1.56l3.163-6.401-1.58 6.4h1.504L55.991.147h-2.378zm-13.36 0l-1.676 7.717h1.648l.694-3.196h.673c.388 0 .661.051.819.154.254.17.494.507.72 1.004.415.924.694 1.602.837 2.038h1.77c-.453-1.1-.862-1.956-1.23-2.558-.185-.3-.383-.541-.597-.722.827-.101 1.446-.367 1.852-.793.41-.426.61-.967.61-1.625 0-.459-.101-.85-.31-1.173a1.626 1.626 0 0 0-.825-.667c-.343-.12-.819-.18-1.43-.18h-3.554zm1.366 1.29h1.812c.485 0 .801.042.946.124a.69.69 0 0 1 .354.635c0 .236-.083.463-.244.683-.164.217-.391.378-.68.479-.291.103-.878.15-1.763.15h-.875l.45-2.071zM24.664.146l-1.68 7.717h1.651l.709-3.285h3.878l.28-1.29h-3.88l.404-1.852h3.955l.285-1.29h-5.602zm-8.026 0l-1.676 7.717h1.648l.694-3.196h.673c.39 0 .661.051.818.154.257.17.497.507.72 1.004.417.924.697 1.602.835 2.038h1.774c-.454-1.1-.863-1.956-1.232-2.558-.185-.3-.382-.541-.594-.722.827-.101 1.443-.367 1.85-.793.409-.426.613-.967.613-1.625 0-.459-.104-.85-.314-1.173a1.622 1.622 0 0 0-.825-.667c-.34-.12-.816-.18-1.429-.18h-3.555zm1.368 1.29h1.811c.485 0 .8.042.947.124a.69.69 0 0 1 .352.635c0 .236-.081.463-.242.683a1.424 1.424 0 0 1-.683.479c-.288.103-.878.15-1.762.15h-.875l.452-2.071zM9.14.146L7.466 7.863h6.257l.283-1.291h-4.66l.5-2.094h4.148l.278-1.29h-4.144l.382-1.752h4.287l.279-1.29H9.14zm-7.462 0l-1.68 7.717H1.65l.64-2.943h1.053c.71 0 1.194-.016 1.45-.053.448-.06.8-.147 1.064-.259.261-.114.506-.282.734-.504.228-.223.419-.516.576-.885A2.88 2.88 0 0 0 7.4 2.082c0-.422-.097-.784-.292-1.088A1.663 1.663 0 0 0 6.306.34C5.969.21 5.512.146 4.932.146H1.679zm1.37 1.267h1.179c.534 0 .88.028 1.034.083a.72.72 0 0 1 .362.261c.085.119.128.27.128.456 0 .28-.083.532-.25.765-.169.23-.399.4-.69.505-.289.105-.874.158-1.74.158h-.509l.486-2.228z" fill="#888" mask="url(#d)"/></g></g></svg>