<svg width="48" height="49" viewBox="0 0 48 49" xmlns="http://www.w3.org/2000/svg" xmlns:xlink="http://www.w3.org/1999/xlink"><defs><path id="a" d="M0 .303h47.997V48.3H0z"/></defs><g fill="none" fill-rule="evenodd"><g transform="translate(0 .045)"><mask id="b" fill="#fff"><use xlink:href="#a"/></mask><path d="M33.735 34.594l1.474-1.715.38.327-1.075 1.25.5.43.999-1.163.38.326-1 1.163.61.524 1.11-1.292.38.327-1.509 1.756-2.25-1.933zm-2.148 1.643l1.824-1.337.296.404-1.329.975.39.53 1.237-.907.296.405-1.236.907.475.647 1.374-1.008.297.404-1.868 1.372-1.756-2.392zm-1.448 1.246l-.824.368-.205-.457 2.208-.988.204.458-.823.368 1.007 2.25-.56.251-1.007-2.25zm-3.702.507l.584-.123 1.619 1.684.009-.003-.407-1.937.558-.117.609 2.903-.604.127-1.589-1.644-.01.002.399 1.894-.559.116-.61-2.902zm-1.376 1.825l-.398-1.11-.436 1.093.834.017zm.436 1.182l-.251-.677-1.217-.025-.266.666-.654-.013 1.25-2.942.65.014 1.16 2.991-.672-.014zm-4.586-2.309l.442.113c.183.046.433.11.546.1.224-.015.29-.194.313-.279.03-.116.017-.24-.078-.332-.096-.093-.17-.112-.57-.213l-.466-.119-.187.73zm-.284-1.368l1.255.32c.44.112.575.194.657.244.31.212.368.577.297.858-.079.313-.31.549-.63.592a1.161 1.161 0 0 1-.352.004l-.003.009c.213.2.303.333.482.87l.216.653-.713-.181-.27-.735c-.228-.61-.25-.675-.65-.777l-.12-.03-.306 1.2-.593-.15.73-2.877zM18.6 38.361l.129-1.173-.872.792.743.381zm-.127 1.253l.072-.718-1.083-.557-.53.483-.583-.3 2.412-2.094.58.298-.27 3.196-.598-.308zm-2.156-4.924l-1.025 1.232c-.225.27-.318.382-.349.539-.046.236.105.427.249.547.452.376.681.099 1.005-.29l1.047-1.258.471.392-.996 1.198c-.338.407-.543.62-.8.696-.405.121-.78-.114-1.042-.332-.96-.798-.48-1.374-.044-1.9l1.012-1.217.472.393zm-2.662-.942l.78 1.07-.954.695c-.242-.045-.775-.284-1.139-.782-.647-.888-.293-1.699.336-2.158.586-.426 1.472-.567 2.122.325.29.399.553.998.061 1.562l-.45-.43c.26-.338.084-.678-.024-.826-.154-.21-.38-.387-.69-.383-.23.005-.442.117-.625.25-.355.26-.758.747-.337 1.326.211.29.536.405.628.432l.3-.218-.412-.568.404-.295zm14.037-15.562l.446.882.254-.955.976-.153-.83-.535.158-.976-.768.623-.879-.45.356.922-.7.696.987-.054zm.7 12.387l-.254-.956-.446.88-.987-.053.701.697-.356.922.879-.45.767.623-.158-.976.83-.536-.976-.151zm-3.22.019l-1.034.675-1.035-.675.324 1.193-.963.775 1.234.061.44 1.154.44-1.154 1.234-.061-.963-.775.323-1.193zm-4.588-.093l-.446-.882-.254.956-.976.152.83.536-.157.975.767-.623.878.45-.356-.922.7-.697-.986.055zm-.7-12.386l.253.955.446-.88.987.052-.7-.696.356-.922-.88.45-.765-.623.156.976-.83.535.977.153zm3.543-1.212l-.963-.775 1.234-.062.44-1.154.439 1.154 1.234.062-.962.775.323 1.192-1.034-.675-1.035.675.324-1.192zm8.465 3.352l-4.068 7.655h.984l4.03-7.61-.946-.045zm-3.263 3.025c.276 0 .416-.2.416-.602v-1.025c0-.401-.15-.602-.452-.602-.278 0-.416.2-.416.602v1.025c0 .401.15.602.452.602zm-.112.832c-.329 0-.612-.12-.85-.36a1.177 1.177 0 0 1-.358-.863v-1.411c0-.4.137-.71.41-.929.259-.195.59-.294.997-.294.329 0 .61.12.844.359.234.24.351.527.351.864v1.411c0 .4-.13.704-.392.912-.263.207-.595.31-1.002.31zm4.149 1.348c0-.398-.15-.598-.451-.598-.278 0-.417.2-.417.598v1.02c0 .398.152.598.452.598.278 0 .416-.2.416-.598v-1.02zm.868-.187v1.418c0 .399-.133.702-.398.908-.267.208-.602.311-1.009.311-.329 0-.609-.12-.844-.364a1.193 1.193 0 0 1-.351-.855v-1.418c0-.391.136-.696.41-.915.25-.203.578-.305.985-.305.328 0 .611.121.85.363.238.243.357.528.357.857zm-8.077-2.737c0-.311-.031-.532-.094-.665-.094-.21-.277-.315-.55-.315-.556 0-.833.327-.833.98v3.409c0 .654.253.98.762.98.476 0 .715-.326.715-.98v-3.409zm.65-1.52c.348.343.522.757.522 1.24v4.004c0 .484-.174.897-.521 1.241-.349.343-.761.515-1.238.515h-.304c-.485 0-.899-.172-1.243-.515a1.693 1.693 0 0 1-.516-1.24v-4.004c0-.484.173-.898.516-1.24a1.696 1.696 0 0 1 1.243-.516h.304c.477 0 .89.172 1.238.515zm-5.222 1.52c0-.311-.031-.532-.094-.665-.094-.21-.277-.315-.551-.315-.555 0-.833.327-.833.98v3.409c0 .654.254.98.763.98.477 0 .715-.326.715-.98v-3.409zm.65-1.52c.349.343.523.757.523 1.24v4.004c0 .484-.174.897-.522 1.241-.349.343-.761.515-1.237.515h-.305a1.7 1.7 0 0 1-1.244-.515 1.693 1.693 0 0 1-.515-1.24v-4.004c0-.484.172-.898.515-1.24a1.698 1.698 0 0 1 1.244-.516h.305c.476 0 .888.172 1.237.515zm-5.316-.374l1.22-.012v7.28h-1.22v-5.92l-1.195 1.184v-1.43l1.195-1.102zm-6.446 7.986l-1.11-.718 1.305-.203.339-1.277.597 1.178 1.317-.072-.935.931.475 1.232-1.173-.602-1.025.833.21-1.302zm28.879 2.232l-1.024-.832-1.174.602.476-1.231-.937-.932 1.318.073.598-1.178.338 1.276 1.305.204-1.11.716.21 1.302zm6.134-6.689a.243.243 0 0 1-.351.003 66.905 66.905 0 0 0-1.292-1.175.23.23 0 0 1-.025-.335.254.254 0 0 1 .35-.031 66.835 66.835 0 0 1 1.308 1.174c.1.098.104.263.01.364zm-.016 1.03a.243.243 0 0 1-.35-.015 69.34 69.34 0 0 0-1.234-1.238.232.232 0 0 1-.007-.336.255.255 0 0 1 .351-.014c.272.248 1.25 1.239 1.25 1.239a.264.264 0 0 1-.01.363zm-.067 1.027a.243.243 0 0 1-.348-.032 64.225 64.225 0 0 0-1.17-1.297.23.23 0 0 1 .009-.336.253.253 0 0 1 .35.003c.26.262 1.188 1.299 1.188 1.299.09.106.076.27-.029.363zm-.116 1.022a.244.244 0 0 1-.348-.048 67.642 67.642 0 0 0-1.104-1.354.23.23 0 0 1 .027-.334.252.252 0 0 1 .35.02c.246.273 1.122 1.355 1.122 1.355a.265.265 0 0 1-.047.361zm-.167 1.016a.243.243 0 0 1-.345-.065c-.214-.317-1.036-1.408-1.036-1.408a.23.23 0 0 1 .043-.332.253.253 0 0 1 .349.037 70.1 70.1 0 0 1 1.053 1.41.264.264 0 0 1-.064.358zm-.218 1.006a.243.243 0 0 1-.341-.083 66.135 66.135 0 0 0-.964-1.456.23.23 0 0 1 .06-.33.254.254 0 0 1 .346.054c.218.297.98 1.46.98 1.46a.265.265 0 0 1-.081.355zm-.268.994a.243.243 0 0 1-.337-.1c-.182-.336-.89-1.502-.89-1.502a.23.23 0 0 1 .076-.327.253.253 0 0 1 .344.072c.201.307.905 1.507.905 1.507a.263.263 0 0 1-.098.35zm-.32.98a.243.243 0 0 1-.33-.117c-.164-.345-.813-1.545-.813-1.545a.231.231 0 0 1 .092-.324.255.255 0 0 1 .34.09c.186.317.83 1.551.83 1.551a.266.266 0 0 1-.119.346zm-.366.962a.243.243 0 0 1-.324-.132c-.147-.354-.734-1.586-.734-1.586a.229.229 0 0 1 .108-.317.253.253 0 0 1 .334.106c.17.326.75 1.591.75 1.591a.264.264 0 0 1-.134.338zm-.414.944a.244.244 0 0 1-.318-.15c-.129-.36-.654-1.62-.654-1.62a.23.23 0 0 1 .123-.312.255.255 0 0 1 .33.123c.153.334.67 1.626.67 1.626a.266.266 0 0 1-.151.333zm-.462.92a.243.243 0 0 1-.31-.165c-.11-.365-.571-1.651-.571-1.651a.23.23 0 0 1 .139-.305.255.255 0 0 1 .322.139c.136.342.588 1.658.588 1.658a.264.264 0 0 1-.168.324zm-.505.897a.243.243 0 0 1-.302-.18c-.092-.37-.489-1.678-.489-1.678a.23.23 0 0 1 .154-.299c.129-.04.27.028.314.156.119.348.504 1.685.504 1.685a.263.263 0 0 1-.181.316zm-.55.87a.243.243 0 0 1-.292-.195c-.075-.376-.406-1.7-.406-1.7a.23.23 0 0 1 .167-.291c.13-.033.27.041.307.17.102.354.42 1.71.42 1.71a.264.264 0 0 1-.197.306zm-.593.842a.244.244 0 0 1-.282-.21 43.278 43.278 0 0 0-.32-1.718.231.231 0 0 1 .18-.283.255.255 0 0 1 .298.187c.084.357.335 1.727.335 1.727a.264.264 0 0 1-.211.297zm-.634.811a.243.243 0 0 1-.27-.223 44.36 44.36 0 0 0-.236-1.733.23.23 0 0 1 .194-.273.254.254 0 0 1 .288.2c.066.362.249 1.743.249 1.743a.265.265 0 0 1-.225.286zm-.674.78a.244.244 0 0 1-.26-.238 41.476 41.476 0 0 0-.148-1.742.23.23 0 0 1 .207-.264c.134-.014.26.081.278.215.047.364.163 1.753.163 1.753a.266.266 0 0 1-.24.275zm-.712.742a.242.242 0 0 1-.247-.249c.003-.38-.042-1.54-.063-1.746a.23.23 0 0 1 .22-.254.253.253 0 0 1 .267.228c.03.366.076 1.76.076 1.76a.26.26 0 0 1-.253.26zm-.467-27.462a.255.255 0 0 1 .26-.237c.368.017 1.541.117 1.752.146.137.018.24.147.225.286a.244.244 0 0 1-.277.215 70.943 70.943 0 0 0-1.739-.157.231.231 0 0 1-.22-.253zm-.015 27.921a.259.259 0 0 1-.266.249.244.244 0 0 1-.235-.261c.024-.378.035-1.538.026-1.747a.23.23 0 0 1 .232-.244c.134 0 .25.107.255.242.012.369-.012 1.761-.012 1.761zm-.642-28.608a.256.256 0 0 1 .248-.249c.368-.005 1.547.039 1.757.058.139.01.246.136.238.275a.243.243 0 0 1-.267.228c-.38-.029-1.743-.07-1.743-.07a.235.235 0 0 1-.233-.242zm-.127 29.293a.258.258 0 0 1-.28.233.244.244 0 0 1-.221-.273c.045-.373.113-1.532.113-1.742a.231.231 0 0 1 .243-.232.256.256 0 0 1 .243.254c-.004.37-.098 1.76-.098 1.76zm-.329-30.207c.37-.024 1.55-.04 1.76-.03a.263.263 0 0 1 .25.263c0 .14-.116.246-.253.241a66.397 66.397 0 0 0-1.746.016c-.134.008-.238-.098-.246-.229a.254.254 0 0 1 .235-.261zm-.474 30.85c-.02.14-.15.24-.29.219a.243.243 0 0 1-.209-.282c.065-.37.19-1.524.2-1.734a.23.23 0 0 1 .255-.22c.133.013.237.13.229.266-.021.371-.185 1.752-.185 1.752zm-.833.605a.255.255 0 0 1-.302.203.243.243 0 0 1-.194-.293c.085-.362.265-1.512.287-1.72a.23.23 0 0 1 .263-.208c.134.02.232.142.217.276-.037.372-.271 1.742-.271 1.742zm-.862.562a.258.258 0 0 1-.313.187.243.243 0 0 1-.18-.302c.103-.358.373-1.704.373-1.704a.23.23 0 0 1 .274-.194.255.255 0 0 1 .203.287c-.056.37-.357 1.726-.357 1.726zm-1.212.688a.242.242 0 0 1-.165-.31c.121-.353.459-1.681.459-1.681a.231.231 0 0 1 .283-.182c.13.032.215.164.187.297-.073.369-.443 1.706-.443 1.706a.256.256 0 0 1-.321.17zm-.593.304a.26.26 0 0 1-.331.153.242.242 0 0 1-.147-.318c.138-.347.541-1.657.541-1.657a.23.23 0 0 1 .292-.166.255.255 0 0 1 .173.305c-.092.365-.528 1.683-.528 1.683zm-1.275.562a.243.243 0 0 1-.132-.325c.155-.34.623-1.627.623-1.627a.234.234 0 0 1 .3-.151.254.254 0 0 1 .157.313c-.109.36-.61 1.656-.61 1.656a.262.262 0 0 1-.338.134zm-.965.362a.244.244 0 0 1-.115-.332c.171-.332.704-1.593.704-1.593.05-.122.184-.188.307-.136.124.05.189.194.141.322-.126.354-.691 1.621-.691 1.621a.263.263 0 0 1-.346.118zm-.98.314a.243.243 0 0 1-.098-.338c.187-.323.782-1.556.782-1.556a.235.235 0 0 1 .314-.12.254.254 0 0 1 .125.328c-.144.35-.774 1.585-.774 1.585a.265.265 0 0 1-.35.1zm-.641.18a.265.265 0 0 1-.356.082.244.244 0 0 1-.08-.34c.203-.315.86-1.516.86-1.516a.236.236 0 0 1 .32-.104c.117.063.168.211.107.334-.161.341-.851 1.544-.851 1.544zm-1.362.295a.241.241 0 0 1-.064-.344c.219-.305.934-1.472.934-1.472a.238.238 0 0 1 .325-.086c.114.069.157.22.091.339-.177.333-.928 1.5-.928 1.5a.263.263 0 0 1-.358.063zm-.657.117a.265.265 0 0 1-.36.046.243.243 0 0 1-.047-.348c.234-.293 1.008-1.423 1.008-1.423a.237.237 0 0 1 .328-.07.254.254 0 0 1 .074.344c-.194.324-1.003 1.451-1.003 1.451zm-1.383.157a.243.243 0 0 1-.03-.35c.247-.28 1.078-1.37 1.078-1.37a.237.237 0 0 1 .33-.054c.107.08.135.234.058.347-.21.313-1.074 1.399-1.074 1.399a.262.262 0 0 1-.362.028zm-1.028.06a.244.244 0 0 1-.012-.35c.262-.267 1.144-1.316 1.144-1.316.084-.1.23-.122.334-.037.102.084.122.24.04.349-.227.303-1.143 1.344-1.143 1.344a.262.262 0 0 1-.363.01zm-1.029.01a.242.242 0 0 1 .005-.35c.274-.253 1.208-1.257 1.208-1.257a.236.236 0 0 1 .335-.022c.099.09.111.248.022.35-.24.291-1.206 1.286-1.206 1.286-.1.1-.266.093-.364-.006zm-1.028-.04a.242.242 0 0 1 .022-.349c.286-.238 1.268-1.196 1.268-1.196a.234.234 0 0 1 .336-.007.255.255 0 0 1 .005.352c-.255.277-1.268 1.224-1.268 1.224-.105.098-.27.08-.363-.024zm-1.026-.09a.243.243 0 0 1 .04-.35c.299-.221 1.325-1.13 1.325-1.13a.232.232 0 0 1 .336.009.253.253 0 0 1-.012.35c-.267.265-1.327 1.162-1.327 1.162a.257.257 0 0 1-.362-.041zm-1.02-.141a.243.243 0 0 1 .057-.347c.31-.208 1.38-1.065 1.38-1.065a.231.231 0 0 1 .336.026.254.254 0 0 1-.03.35c-.281.25-1.383 1.094-1.383 1.094a.257.257 0 0 1-.36-.058zm-.655-.118a.256.256 0 0 1-.356-.076.243.243 0 0 1 .074-.343c.32-.192 1.431-.994 1.431-.994a.232.232 0 0 1 .334.042c.08.108.06.264-.047.348-.292.236-1.436 1.023-1.436 1.023zm-1.357-.319a.244.244 0 0 1 .092-.34c.327-.175 1.479-.92 1.479-.92a.23.23 0 0 1 .33.058.252.252 0 0 1-.063.345c-.305.22-1.485.95-1.485.95a.258.258 0 0 1-.353-.093zm-.64-.182a.257.257 0 0 1-.346-.112.242.242 0 0 1 .108-.333c.336-.16 1.523-.846 1.523-.846a.23.23 0 0 1 .327.075.254.254 0 0 1-.081.342c-.315.204-1.531.874-1.531.874zm-.977-.326a.257.257 0 0 1-.34-.13.243.243 0 0 1 .124-.326c.345-.144 1.564-.768 1.564-.768a.23.23 0 0 1 .323.09c.063.119.02.272-.098.338-.326.19-1.573.796-1.573.796zm-1.294-.52a.244.244 0 0 1 .142-.321c.351-.126 1.6-.688 1.6-.688a.232.232 0 0 1 .318.107.256.256 0 0 1-.115.333c-.334.172-1.611.717-1.611.717a.26.26 0 0 1-.334-.148zm-.931-.439a.242.242 0 0 1 .157-.313c.357-.109 1.634-.607 1.634-.607a.232.232 0 0 1 .311.124.254.254 0 0 1-.132.326c-.342.157-1.644.635-1.644.635a.26.26 0 0 1-.326-.165zm-.592-.302a.264.264 0 0 1-.317-.181.243.243 0 0 1 .173-.306c.363-.092 1.66-.526 1.66-.526a.235.235 0 0 1 .306.141.254.254 0 0 1-.148.318c-.35.14-1.674.554-1.674.554zm-.893-.514a.263.263 0 0 1-.307-.197.243.243 0 0 1 .188-.296c.367-.074 1.686-.442 1.686-.442.125-.035.26.027.297.156a.255.255 0 0 1-.164.312c-.356.122-1.7.467-1.7.467zm-1.162-.769a.242.242 0 0 1 .202-.286c.37-.057 1.706-.358 1.706-.358a.236.236 0 0 1 .288.171.256.256 0 0 1-.179.303c-.362.104-1.72.381-1.72.381a.263.263 0 0 1-.297-.21zm-.826-.615a.243.243 0 0 1 .216-.276c.374-.04 1.722-.272 1.722-.272a.237.237 0 0 1 .278.187.254.254 0 0 1-.193.293c-.368.086-1.527.27-1.737.294a.262.262 0 0 1-.286-.226zm-.52-.415a.263.263 0 0 1-.275-.239.243.243 0 0 1 .23-.265 53.432 53.432 0 0 0 1.733-.187.238.238 0 0 1 .269.201.255.255 0 0 1-.208.284c-.37.066-1.54.196-1.75.206zm-1.037-.93a.243.243 0 0 1 .243-.255c.38-.005 1.742-.102 1.742-.102a.239.239 0 0 1 .257.216.256.256 0 0 1-.222.273c-.371.045-1.546.118-1.757.119a.265.265 0 0 1-.263-.252zm-.474-.467a.265.265 0 0 1-.252-.264.244.244 0 0 1 .255-.241c.381.012 1.745-.016 1.745-.016.134-.008.238.1.246.23a.255.255 0 0 1-.235.261c-.371.024-1.55.04-1.76.03zm-.941-1.029a.244.244 0 0 1 .267-.227c.38.029 1.744.07 1.744.07a.233.233 0 0 1 .233.241c0 .133-.11.246-.248.25-.37.004-1.547-.04-1.758-.059a.264.264 0 0 1-.238-.275zm-.425-.51a.264.264 0 0 1-.225-.287.243.243 0 0 1 .278-.215c.38.048 1.738.157 1.738.157.134.006.23.119.22.253a.255.255 0 0 1-.26.237 41.403 41.403 0 0 1-1.751-.146zm-.835-1.116a.243.243 0 0 1 .288-.201c.377.067 1.729.242 1.729.242a.23.23 0 0 1 .207.264.255.255 0 0 1-.271.224 46.793 46.793 0 0 1-1.742-.232.264.264 0 0 1-.21-.297zm-.568-.86a.243.243 0 0 1 .298-.185 68.09 68.09 0 0 0 1.714.327c.133.02.22.142.195.274a.255.255 0 0 1-.282.21c-.363-.053-1.52-.27-1.73-.318a.264.264 0 0 1-.195-.307zm-.524-.885a.243.243 0 0 1 .305-.171c.368.104 1.697.413 1.697.413.132.026.212.15.182.283a.253.253 0 0 1-.292.194c-.36-.07-1.712-.404-1.712-.404a.263.263 0 0 1-.18-.315zm-.481-.91a.244.244 0 0 1 .314-.157c.362.122 1.676.497 1.676.497a.23.23 0 0 1 .167.291.255.255 0 0 1-.302.18c-.356-.087-1.689-.488-1.689-.488a.264.264 0 0 1-.166-.324zm-.433-.935a.244.244 0 0 1 .321-.14c.356.141 1.648.58 1.648.58a.231.231 0 0 1 .154.3.255.255 0 0 1-.31.164c-.353-.106-1.664-.572-1.664-.572a.263.263 0 0 1-.15-.332zm-.387-.954a.243.243 0 0 1 .329-.124c.347.159 1.617.661 1.617.661a.23.23 0 0 1 .139.306.256.256 0 0 1-.319.15c-.346-.124-1.632-.655-1.632-.655a.263.263 0 0 1-.134-.338zm-.337-.974c.06-.125.21-.17.334-.106.34.176 1.582.741 1.582.741a.23.23 0 0 1 .123.313.255.255 0 0 1-.325.133c-.34-.14-1.598-.735-1.598-.735a.264.264 0 0 1-.116-.346zm-.19-.638a.265.265 0 0 1-.099-.35.243.243 0 0 1 .34-.09c.33.192 1.542.82 1.542.82a.231.231 0 0 1 .109.318.256.256 0 0 1-.333.117 70.887 70.887 0 0 1-1.559-.815zm-.337-1.352a.243.243 0 0 1 .343-.072c.32.208 1.5.895 1.5.895a.23.23 0 0 1 .092.323.255.255 0 0 1-.337.1c-.323-.173-1.516-.891-1.516-.891a.264.264 0 0 1-.082-.355zm-.188-1.013a.242.242 0 0 1 .347-.055c.31.224 1.452.97 1.452.97a.23.23 0 0 1 .076.328.255.255 0 0 1-.341.083c-.316-.19-1.47-.967-1.47-.967a.265.265 0 0 1-.064-.36zm-.137-1.02a.244.244 0 0 1 .35-.039c.297.24 1.403 1.043 1.403 1.043a.23.23 0 0 1 .058.33.254.254 0 0 1-.345.066c-.305-.205-1.42-1.038-1.42-1.038a.265.265 0 0 1-.046-.362zm-.086-1.027a.244.244 0 0 1 .352-.02 64.62 64.62 0 0 0 1.347 1.11.23.23 0 0 1 .044.334.255.255 0 0 1-.348.049c-.295-.22-1.366-1.109-1.366-1.109a.265.265 0 0 1-.029-.364zm-.033-1.028c.093-.1.25-.1.35-.003a65.57 65.57 0 0 0 1.292 1.175.231.231 0 0 1 .025.336.254.254 0 0 1-.35.031c-.283-.235-1.309-1.175-1.309-1.175a.264.264 0 0 1-.008-.364zm.015-1.029c.1-.097.256-.089.351.014A61.892 61.892 0 0 0 5.095 24.8c.1.091.102.24.008.337a.255.255 0 0 1-.35.013c-.272-.248-1.25-1.238-1.25-1.238a.264.264 0 0 1 .009-.364zm.066-1.026a.244.244 0 0 1 .35.031 65.958 65.958 0 0 0 1.17 1.297.23.23 0 0 1-.01.336.254.254 0 0 1-.35-.004c-.26-.261-1.188-1.297-1.188-1.297a.265.265 0 0 1 .028-.363zm.117-1.024a.243.243 0 0 1 .346.05A67.37 67.37 0 0 0 5.146 22.9a.23.23 0 0 1-.026.335.254.254 0 0 1-.35-.02C4.525 22.94 3.65 21.86 3.65 21.86a.264.264 0 0 1 .046-.362zm.167-1.016a.244.244 0 0 1 .345.066 65.922 65.922 0 0 0 1.035 1.407.231.231 0 0 1-.042.333.254.254 0 0 1-.35-.038c-.231-.285-1.052-1.409-1.052-1.409a.265.265 0 0 1 .064-.359zm.218-1.006a.244.244 0 0 1 .34.083 68.3 68.3 0 0 0 .965 1.458.23.23 0 0 1-.059.33.256.256 0 0 1-.347-.056c-.218-.297-.98-1.46-.98-1.46a.265.265 0 0 1 .08-.355zm.268-.994c.121-.07.27-.023.336.1.182.336.89 1.503.89 1.503a.23.23 0 0 1-.075.327.256.256 0 0 1-.344-.072 68.811 68.811 0 0 1-.905-1.507.264.264 0 0 1 .098-.351zm.318-.98a.242.242 0 0 1 .331.117c.164.345.814 1.546.814 1.546a.231.231 0 0 1-.093.323.255.255 0 0 1-.34-.09c-.186-.317-.828-1.55-.828-1.55a.264.264 0 0 1 .116-.345zm.367-.963a.244.244 0 0 1 .325.135c.147.352.735 1.584.735 1.584a.23.23 0 0 1-.11.318.253.253 0 0 1-.333-.107c-.17-.326-.75-1.59-.75-1.59a.265.265 0 0 1 .133-.34zm.415-.942c.129-.05.27.018.317.15.129.36.654 1.62.654 1.62a.231.231 0 0 1-.123.312.254.254 0 0 1-.329-.124 70.004 70.004 0 0 1-.67-1.626.264.264 0 0 1 .15-.332zm.46-.92a.244.244 0 0 1 .31.164c.154.508.572 1.652.572 1.652a.23.23 0 0 1-.138.305.254.254 0 0 1-.322-.14 64.72 64.72 0 0 1-.587-1.657.263.263 0 0 1 .166-.324zm.506-.897a.244.244 0 0 1 .302.18c.093.37.49 1.678.49 1.678a.23.23 0 0 1-.154.299.256.256 0 0 1-.315-.156c-.118-.348-.504-1.685-.504-1.685a.265.265 0 0 1 .181-.316zm.55-.87a.243.243 0 0 1 .293.195c.075.375.405 1.7.405 1.7a.23.23 0 0 1-.166.291.255.255 0 0 1-.308-.17 72.81 72.81 0 0 1-.42-1.71.265.265 0 0 1 .197-.306zm.594-.842a.243.243 0 0 1 .282.21c.056.378.275 1.519.321 1.718.03.13-.05.256-.182.283a.255.255 0 0 1-.297-.187c-.084-.357-.335-1.728-.335-1.728a.264.264 0 0 1 .21-.296zm.634-.812a.245.245 0 0 1 .271.223c.037.382.198 1.53.235 1.733a.23.23 0 0 1-.194.274.256.256 0 0 1-.289-.201 77.789 77.789 0 0 1-.249-1.743.266.266 0 0 1 .226-.286zm.674-.778c.14-.008.255.1.259.237.018.381.121 1.536.149 1.741a.23.23 0 0 1-.208.265.255.255 0 0 1-.277-.216c-.047-.363-.163-1.752-.163-1.752a.264.264 0 0 1 .24-.275zm.712-.744c.141 0 .25.112.248.25-.004.38.042 1.539.061 1.746a.23.23 0 0 1-.22.254.253.253 0 0 1-.266-.228c-.03-.367-.077-1.76-.077-1.76a.26.26 0 0 1 .254-.262zm.482-.458a.258.258 0 0 1 .265-.249.243.243 0 0 1 .236.261 31.319 31.319 0 0 0-.026 1.747.23.23 0 0 1-.232.243.252.252 0 0 1-.254-.241c-.013-.37.01-1.761.01-1.761zm.77-.685a.255.255 0 0 1 .278-.233c.14.013.238.135.222.272a29.936 29.936 0 0 0-.113 1.743.232.232 0 0 1-.243.232.254.254 0 0 1-.243-.254c.004-.371.099-1.76.099-1.76zm.8-.645c.021-.14.152-.24.292-.218.14.02.231.147.209.282-.065.369-.191 1.525-.2 1.735a.23.23 0 0 1-.255.22.254.254 0 0 1-.23-.266c.022-.371.185-1.753.185-1.753zm.835-.603a.255.255 0 0 1 .302-.203.243.243 0 0 1 .194.292 26.878 26.878 0 0 0-.287 1.72.23.23 0 0 1-.264.209.256.256 0 0 1-.217-.277c.04-.371.272-1.741.272-1.741zm.862-.563a.256.256 0 0 1 .313-.186.242.242 0 0 1 .178.302c-.102.357-.371 1.703-.371 1.703a.232.232 0 0 1-.275.195.254.254 0 0 1-.201-.287c.055-.37.356-1.727.356-1.727zm.89-.518a.258.258 0 0 1 .323-.17c.134.04.205.18.162.31-.12.354-.457 1.682-.457 1.682a.23.23 0 0 1-.282.182.255.255 0 0 1-.189-.297c.074-.368.443-1.707.443-1.707zm.915-.474a.259.259 0 0 1 .33-.152.242.242 0 0 1 .148.318c-.137.347-.54 1.656-.54 1.656a.232.232 0 0 1-.293.167.256.256 0 0 1-.173-.306c.092-.364.528-1.683.528-1.683zm1.275-.561c.13.052.187.199.132.324-.155.34-.623 1.627-.623 1.627a.234.234 0 0 1-.3.152.254.254 0 0 1-.157-.314c.108-.36.61-1.655.61-1.655a.262.262 0 0 1 .338-.134zm.965-.363c.126.06.176.208.114.332-.171.333-.705 1.594-.705 1.594a.234.234 0 0 1-.306.136.255.255 0 0 1-.141-.321c.126-.355.693-1.623.693-1.623a.264.264 0 0 1 .345-.118zm.98-.313a.243.243 0 0 1 .098.337c-.187.324-.783 1.557-.783 1.557-.056.118-.192.178-.314.12a.255.255 0 0 1-.125-.328c.145-.35.774-1.586.774-1.586a.264.264 0 0 1 .35-.1zm.996-.262c.12.07.155.224.081.34-.203.315-.86 1.517-.86 1.517a.237.237 0 0 1-.32.103.255.255 0 0 1-.109-.334c.162-.342.853-1.545.853-1.545a.263.263 0 0 1 .355-.081zm1.007-.214a.244.244 0 0 1 .064.346c-.219.303-.934 1.47-.934 1.47a.238.238 0 0 1-.325.087.254.254 0 0 1-.092-.339c.178-.334.929-1.499.929-1.499a.265.265 0 0 1 .358-.065zm.655-.116a.265.265 0 0 1 .362-.046c.113.083.132.24.046.348-.233.292-1.007 1.423-1.007 1.423a.237.237 0 0 1-.328.07.254.254 0 0 1-.074-.344c.194-.323 1.001-1.451 1.001-1.451zm1.386-.157c.108.088.12.245.03.35-.249.28-1.08 1.37-1.08 1.37a.236.236 0 0 1-.33.054.255.255 0 0 1-.057-.348c.21-.314 1.073-1.4 1.073-1.4a.266.266 0 0 1 .364-.026zm1.027-.061a.244.244 0 0 1 .012.351c-.262.267-1.144 1.315-1.144 1.315a.237.237 0 0 1-.333.037.254.254 0 0 1-.04-.349c.225-.303 1.14-1.344 1.14-1.344.097-.1.261-.104.365-.01zm.665-.017a.26.26 0 0 1 .363.007c.1.1.096.256-.004.35-.275.254-1.208 1.258-1.208 1.258-.089.095-.237.113-.335.021a.255.255 0 0 1-.023-.35c.242-.291 1.207-1.286 1.207-1.286zm1.392.047a.242.242 0 0 1-.023.35c-.286.238-1.267 1.196-1.267 1.196a.234.234 0 0 1-.336.006.253.253 0 0 1-.006-.35c.255-.28 1.268-1.226 1.268-1.226.105-.097.27-.078.364.024zm.663.05a.257.257 0 0 1 .362.04c.09.11.07.266-.04.349-.297.224-1.325 1.132-1.325 1.132a.231.231 0 0 1-.336-.01.255.255 0 0 1 .012-.35c.269-.264 1.327-1.16 1.327-1.16zm1.382.182a.243.243 0 0 1-.057.347c-.309.208-1.38 1.064-1.38 1.064a.231.231 0 0 1-.335-.025.254.254 0 0 1 .03-.35c.28-.251 1.383-1.093 1.383-1.093a.257.257 0 0 1 .359.057zm1.011.193a.244.244 0 0 1-.074.344c-.319.192-1.43.993-1.43.993a.23.23 0 0 1-.334-.041.255.255 0 0 1 .046-.348c.293-.236 1.437-1.023 1.437-1.023a.256.256 0 0 1 .355.075zm1.001.244c.072.121.03.273-.091.338-.328.178-1.48.922-1.48.922a.229.229 0 0 1-.33-.059.253.253 0 0 1 .065-.345c.303-.22 1.484-.95 1.484-.95a.257.257 0 0 1 .352.094zm.64.182a.259.259 0 0 1 .347.111.243.243 0 0 1-.108.334c-.336.16-1.523.846-1.523.846a.232.232 0 0 1-.328-.075.255.255 0 0 1 .082-.342c.314-.205 1.53-.874 1.53-.874zm.978.324a.26.26 0 0 1 .341.13.244.244 0 0 1-.125.328c-.345.143-1.564.768-1.564.768a.23.23 0 0 1-.323-.092.255.255 0 0 1 .098-.337c.325-.189 1.573-.797 1.573-.797zm1.293.521a.243.243 0 0 1-.142.321c-.35.127-1.6.689-1.6.689a.232.232 0 0 1-.317-.108.256.256 0 0 1 .114-.332c.335-.173 1.612-.717 1.612-.717a.259.259 0 0 1 .333.147zm.932.439a.244.244 0 0 1-.158.314c-.357.109-1.632.607-1.632.607a.233.233 0 0 1-.312-.125.254.254 0 0 1 .131-.325c.343-.157 1.646-.635 1.646-.635a.261.261 0 0 1 .325.164zm.908.484a.242.242 0 0 1-.172.305c-.363.092-1.662.525-1.662.525a.233.233 0 0 1-.304-.14.255.255 0 0 1 .148-.319c.35-.138 1.675-.552 1.675-.552a.263.263 0 0 1 .315.181zm.883.53a.242.242 0 0 1-.187.296c-.368.074-1.686.442-1.686.442A.236.236 0 0 1 33 7.501a.255.255 0 0 1 .163-.31c.358-.123 1.7-.468 1.7-.468a.264.264 0 0 1 .307.197zm.856.572a.242.242 0 0 1-.202.286c-.371.057-1.705.358-1.705.358a.238.238 0 0 1-.29-.172.255.255 0 0 1 .18-.303c.362-.104 1.72-.38 1.72-.38a.264.264 0 0 1 .297.21zm-.769 16.85c0 6.142-4.978 11.12-11.12 11.12-6.14 0-11.118-4.978-11.118-11.12 0-6.14 4.977-11.118 11.119-11.118 6.141 0 11.12 4.978 11.12 11.119zm1.595-16.236a.243.243 0 0 1-.215.276c-.376.04-1.722.273-1.722.273a.238.238 0 0 1-.28-.187.255.255 0 0 1 .194-.293 27.392 27.392 0 0 1 1.737-.294.264.264 0 0 1 .286.225zm.52.416c.138-.01.262.1.275.238a.244.244 0 0 1-.23.266c-.378.022-1.733.187-1.733.187a.238.238 0 0 1-.27-.202.255.255 0 0 1 .21-.283c.37-.066 1.539-.196 1.747-.206zm1.036.93a.242.242 0 0 1-.243.254c-.378.005-1.74.102-1.74.102a.237.237 0 0 1-.258-.216.255.255 0 0 1 .221-.272c.371-.046 1.546-.118 1.757-.119a.264.264 0 0 1 .263.251zm2.676 3.122a.243.243 0 0 1-.287.2c-.377-.066-1.73-.241-1.73-.241a.23.23 0 0 1-.207-.265.253.253 0 0 1 .27-.223c.365.035 1.532.194 1.742.232.137.026.233.16.212.297zm.568.858a.243.243 0 0 1-.298.187c-.373-.086-1.715-.328-1.715-.328a.232.232 0 0 1-.194-.274.256.256 0 0 1 .282-.21c.363.053 1.52.271 1.728.32.136.03.225.17.197.305zm.343.57a.264.264 0 0 1 .182.316.243.243 0 0 1-.307.17c-.368-.102-1.696-.41-1.696-.41a.231.231 0 0 1-.182-.284c.03-.132.16-.22.292-.195.361.07 1.71.404 1.71.404zm.661 1.227a.242.242 0 0 1-.314.156c-.361-.123-1.675-.496-1.675-.496a.231.231 0 0 1-.167-.292.255.255 0 0 1 .301-.18c.356.088 1.689.488 1.689.488a.263.263 0 0 1 .166.324zm.434.934a.242.242 0 0 1-.322.14 63.251 63.251 0 0 0-1.648-.58.23.23 0 0 1-.152-.298.253.253 0 0 1 .309-.165c.353.105 1.663.572 1.663.572.13.051.198.202.15.331zm.386.956a.243.243 0 0 1-.328.122c-.348-.158-1.617-.66-1.617-.66a.23.23 0 0 1-.138-.307.255.255 0 0 1 .318-.15c.346.124 1.632.656 1.632.656a.264.264 0 0 1 .133.34zm.338.972a.242.242 0 0 1-.334.107c-.34-.176-1.582-.742-1.582-.742a.23.23 0 0 1-.123-.312.255.255 0 0 1 .325-.133c.34.14 1.598.735 1.598.735.124.065.176.22.116.345zm.289.989a.243.243 0 0 1-.339.09 67.87 67.87 0 0 0-1.543-.82.23.23 0 0 1-.108-.319.255.255 0 0 1 .331-.117c.332.158 1.56.815 1.56.815.12.07.166.23.099.35zm.238 1.002a.243.243 0 0 1-.343.072c-.32-.208-1.5-.896-1.5-.896a.23.23 0 0 1-.092-.323.254.254 0 0 1 .337-.1c.324.173 1.516.892 1.516.892a.264.264 0 0 1 .082.355zm.188 1.012a.244.244 0 0 1-.347.056c-.31-.225-1.453-.97-1.453-.97a.23.23 0 0 1-.075-.328.255.255 0 0 1 .341-.083c.315.19 1.469.967 1.469.967a.264.264 0 0 1 .065.358zm.137 1.021a.244.244 0 0 1-.35.038c-.297-.24-1.402-1.042-1.402-1.042a.231.231 0 0 1-.06-.33.254.254 0 0 1 .346-.067c.305.206 1.42 1.04 1.42 1.04.109.086.13.25.046.361zm.084 1.025a.243.243 0 0 1-.35.021 67.12 67.12 0 0 0-1.347-1.11.23.23 0 0 1-.043-.334.256.256 0 0 1 .348-.048c.295.22 1.366 1.109 1.366 1.109a.263.263 0 0 1 .026.362zm1.37 1.162l1.876-1.89-2.15-1.571 1.559-2.16-2.369-1.215 1.203-2.377-2.53-.83.814-2.536-2.629-.425.41-2.63-2.662-.01-.01-2.663-2.63.41-.425-2.63-2.536.815-.831-2.53-2.377 1.202L29.618.893l-2.16 1.558-1.57-2.148-1.89 1.876L22.11.303 20.538 2.45 18.38.893 17.16 3.262 14.786 2.06l-.83 2.53-2.535-.816-.427 2.63-2.63-.409-.009 2.663-2.663.01.41 2.63-2.63.425.816 2.536-2.531.83 1.202 2.377L.59 18.68l1.559 2.16L0 22.412l1.876 1.89L0 26.189l2.148 1.572-1.558 2.16 2.37 1.217-1.203 2.376 2.531.83-.816 2.537 2.63.424-.41 2.632 2.663.006.01 2.663 2.63-.408.426 2.628 2.535-.815.83 2.53 2.375-1.2 1.219 2.367 2.158-1.558 1.571 2.151L24 46.425l1.889 1.876 1.57-2.151 2.16 1.558 1.216-2.368 2.377 1.202.83-2.531 2.537.815.424-2.628 2.631.408.01-2.663 2.663-.006-.41-2.632 2.628-.424-.814-2.538 2.53-.829-1.203-2.376 2.369-1.217-1.559-2.16 2.15-1.572-1.876-1.887z" fill="#444" mask="url(#b)"/></g><path fill="#fff" d="M10.642 16.087l.512-.728 1.96.73.004-.006-1.352-1.593.516-.73 2.425 1.707-.317.451-1.912-1.345-.004.007 1.58 1.814-.33.468-2.245-.87-.005.006 1.91 1.347-.318.45zM14.159 11.913c.738-.62 1.527-.406 2.083.257.5.594.688 1.42-.105 2.086-.849.713-1.634.284-2.074-.24-.61-.725-.605-1.514.096-2.103"/><path d="M15.052 14.01a.74.74 0 0 0 .751-.146c.24-.2.514-.651-.04-1.308-.214-.257-.715-.719-1.27-.252-.519.435-.25.972.03 1.305.216.257.398.353.53.4" fill="#444"/><path fill="#fff" d="M16.291 10.414l.518-.254 1.95 1.248.008-.004-.874-1.778.496-.243 1.309 2.662-.537.264-1.912-1.216-.006.002.854 1.737-.497.243zM19.569 8.971l2.129-.51.116.488-1.552.372.154.64 1.443-.345.117.486-1.444.347.188.78 1.603-.383.117.487-2.181.523zM23.648 10.017l-1.124-1.692.697-.016.722 1.154.655-1.19.684-.016-1.04 1.75.03 1.242-.593.014zM28.691 8.919c.392.115.612.197.757.38.13.17.211.405.137.66a.696.696 0 0 1-.58.497c.444.287.382.687.336.845-.084.282-.334.564-.677.61-.187.022-.373-.02-.975-.195l-.964-.285.835-2.844 1.131.332z"/><path d="M27.656 10.367l-.22.751.53.155c.122.037.363.108.46.102a.342.342 0 0 0 .33-.262c.114-.39-.238-.493-.637-.61l-.463-.136zM27.988 9.235l-.192.651.622.182c.194.058.493.12.582-.182.037-.127.01-.282-.125-.365-.076-.048-.143-.068-.554-.189l-.333-.097z" fill="#444"/><path fill="#fff" d="M31.167 13.25l.102-.71-1.03-.573-.539.468-.554-.309 2.447-2.033.551.307-.409 3.167z"/><path fill="#444" d="M31.347 12.01l.18-1.162-.886.769z"/><path d="M34.26 14.622c-.2.134-.83.544-1.552-.097-.597-.532-.616-1.33-.002-2.02.548-.617 1.347-.888 2.065-.25.122.11.42.396.448.854.012.211-.048.39-.143.584l-.533-.287a.61.61 0 0 0-.136-.786c-.548-.488-1.088.12-1.215.262-.183.207-.343.436-.377.662-.03.194.034.419.232.594.295.263.632.158.902-.035l.31.52zM36.403 13.973l.34.487-1.081.754 1.771.237.458.656-1.582-.249-.816 1.996-.44-.632.676-1.462-.685-.115-.735.512-.34-.487z" fill="#fff"/></g></svg>