<svg width="32" height="42" viewBox="0 0 39 50" xmlns="http://www.w3.org/2000/svg"><g fill="none" fill-rule="evenodd"><path d="M38.742 22.276V7.12c0-.752-.371-1.455-.99-1.873a2.2 2.2 0 0 0-2.09-.206c-9.909 4.167-13.84-2.961-14.257-3.795A2.224 2.224 0 0 0 19.413 0c-.849 0-1.624.488-1.998 1.259-.16.331-4.06 8.067-14.252 3.782a2.204 2.204 0 0 0-2.09.206 2.258 2.258 0 0 0-.99 1.873v15.156c-.228 1.965-1.237 16.78 18.305 27.042a2.195 2.195 0 0 0 2.05 0c19.54-10.26 18.532-25.077 18.304-27.042zm-19.33 22.491C2.942 35.597 4.439 23.277 4.51 22.762c.017-.113.025-.227.025-.341V10.25c7.1 1.846 12.09-.988 14.879-4.092 2.789 3.104 7.78 5.937 14.878 4.091v12.17c0 .114.009.228.026.341.02.13 1.718 12.746-14.904 22.006z" fill="#89B45D" fill-rule="nonzero"/><path d="M14.735 23.852c0 .676-.245 1.203-.735 1.58-.49.379-1.155.568-1.995.568-.91 0-1.61-.117-2.101-.352v-.861a5.53 5.53 0 0 0 1.03.315c.37.077.738.116 1.102.116.595 0 1.043-.113 1.345-.34.3-.225.451-.54.451-.942 0-.266-.053-.484-.16-.654-.107-.17-.285-.326-.536-.47-.25-.143-.63-.306-1.142-.488-.714-.256-1.224-.559-1.53-.909-.307-.35-.46-.807-.46-1.37 0-.592.222-1.063.667-1.413.444-.35 1.033-.525 1.764-.525a5.2 5.2 0 0 1 2.106.42l-.278.777c-.634-.266-1.25-.399-1.849-.399-.472 0-.842.102-1.108.305-.266.203-.399.485-.399.845 0 .266.05.484.147.654.098.17.264.326.496.467.233.142.59.299 1.07.47.804.288 1.358.596 1.661.925.303.329.454.756.454 1.281zm5.903 0c0 .676-.245 1.203-.735 1.58-.49.379-1.155.568-1.996.568-.91 0-1.61-.117-2.1-.352v-.861a5.53 5.53 0 0 0 1.03.315c.37.077.738.116 1.102.116.595 0 1.043-.113 1.344-.34.301-.225.452-.54.452-.942 0-.266-.053-.484-.16-.654-.107-.17-.286-.326-.536-.47-.25-.143-.63-.306-1.142-.488-.714-.256-1.225-.559-1.53-.909-.307-.35-.46-.807-.46-1.37 0-.592.222-1.063.667-1.413.444-.35 1.032-.525 1.764-.525a5.2 5.2 0 0 1 2.106.42l-.278.777c-.634-.266-1.25-.399-1.849-.399-.473 0-.842.102-1.108.305-.266.203-.4.485-.4.845 0 .266.05.484.148.654.098.17.263.326.496.467.233.142.59.299 1.069.47.805.288 1.36.596 1.662.925.303.329.454.756.454 1.281zm1.57 2.043v-7.678h.893v6.87h3.388v.808h-4.28z" fill="#6FA935"/></g></svg>