<svg width="22" height="22" viewBox="0 0 22 22" xmlns="http://www.w3.org/2000/svg"><g fill="none" fill-rule="evenodd"><path d="M-472-102H968v1179H-472z"/><g fill="#B8E986" fill-rule="nonzero"><path d="M21.112 8.42l-2.116-1.312a.801.801 0 0 1-.38-.677l-.043-2.412c0-.423-.211-.804-.508-1.1a1.538 1.538 0 0 0-1.142-.338l-2.454.338c-.254.043-.507-.042-.719-.254L12.1.846C11.804.55 11.423.338 11 .338c-.423 0-.804.17-1.1.508l-1.608 1.82c-.169.21-.423.296-.719.253L5.12 2.581a1.538 1.538 0 0 0-1.142.338 1.503 1.503 0 0 0-.508 1.1l-.042 2.412a.813.813 0 0 1-.38.677L.93 8.419a1.572 1.572 0 0 0-.677 1.016c-.085.423.042.846.338 1.184l1.523 1.82a.82.82 0 0 1 .127.761l-.804 2.37c-.126.422-.084.845.127 1.226.212.38.593.635 1.016.677l2.369.423a.736.736 0 0 1 .592.508l.889 2.327c.169.38.465.719.888.846s.846.085 1.227-.127l2.116-1.227a.896.896 0 0 1 .803 0l2.116 1.227c.211.127.465.212.719.212.17 0 .338-.043.508-.085.423-.127.719-.465.888-.846l.889-2.327a.8.8 0 0 1 .592-.508l2.37-.423a1.572 1.572 0 0 0 1.015-.677c.211-.38.253-.804.126-1.227l-.803-2.369a.82.82 0 0 1 .127-.762l1.523-1.819a1.7 1.7 0 0 0 .338-1.184c-.17-.423-.423-.804-.761-1.016zm-.17 1.734l-1.523 1.82a1.4 1.4 0 0 0-.254 1.395l.804 2.37c.085.211.043.465-.084.676a.83.83 0 0 1-.55.381l-2.37.423a1.38 1.38 0 0 0-1.1.931l-.888 2.327a.838.838 0 0 1-.465.465c-.212.085-.466.043-.677-.042l-2.116-1.227c-.465-.254-1.015-.254-1.438 0L8.165 20.9a.766.766 0 0 1-.677.042.838.838 0 0 1-.465-.465l-.888-2.327a1.454 1.454 0 0 0-1.1-.93l-2.37-.424a.83.83 0 0 1-.55-.38c-.127-.212-.127-.424-.084-.678l.804-2.369c.169-.465.042-1.015-.254-1.396l-1.523-1.82C.93 9.986.846 9.732.888 9.52a.83.83 0 0 1 .381-.55l2.116-1.311a1.42 1.42 0 0 0 .677-1.227l.042-2.412c0-.211.084-.423.296-.592a.78.78 0 0 1 .508-.212c.042 0 .084 0 .127 0l2.453.339c.466.084.974-.127 1.27-.466l1.607-1.819c.297-.338.889-.338 1.185 0l1.608 1.82c.338.38.804.55 1.269.465l2.454-.339c.211-.042.465.043.634.17.17.169.297.38.297.592l.042 2.411c0 .508.254.931.677 1.227l2.115 1.312a.83.83 0 0 1 .38.55c.128.254.086.508-.084.677z"/><path d="M14.85 7.87l-5.458 6.218-2.242-2.496a.385.385 0 0 0-.465-.042.385.385 0 0 0-.043.465l2.496 2.75c.043.085.17.127.254.127.085 0 .17-.042.254-.127l5.67-6.515a.302.302 0 0 0-.043-.465c-.085-.085-.296-.043-.423.084z"/></g></g></svg>