<svg width="18" height="18" viewBox="0 0 18 18" xmlns="http://www.w3.org/2000/svg"><g fill="#000" fill-rule="nonzero"><path d="M17.273 6.888l-1.73-1.073a.655.655 0 0 1-.312-.553l-.035-1.974c0-.346-.173-.657-.415-.9a1.258 1.258 0 0 0-.935-.276l-2.008.276a.664.664 0 0 1-.588-.207L9.9.692C9.658.45 9.346.277 9 .277s-.658.138-.9.415L6.785 2.181c-.139.173-.347.242-.589.207l-2.008-.276a1.258 1.258 0 0 0-.934.276 1.23 1.23 0 0 0-.416.9l-.034 1.974a.665.665 0 0 1-.312.553L.762 6.888a1.286 1.286 0 0 0-.554.831c-.07.346.034.693.277.97l1.246 1.488a.671.671 0 0 1 .104.623l-.658 1.938a1.27 1.27 0 0 0 .104 1.004c.173.312.484.52.83.554l1.939.346a.602.602 0 0 1 .485.416l.727 1.904c.138.311.38.588.726.692.347.104.693.07 1.004-.104l1.731-1.004a.733.733 0 0 1 .658 0l1.73 1.004c.174.104.381.173.589.173.138 0 .277-.035.415-.07.347-.103.589-.38.727-.691l.727-1.904a.655.655 0 0 1 .485-.416l1.938-.346c.346-.07.658-.277.831-.554a1.27 1.27 0 0 0 .104-1.004l-.658-1.938a.671.671 0 0 1 .104-.623l1.246-1.489c.208-.276.312-.623.277-.969-.138-.346-.346-.657-.623-.83zm-.138 1.42l-1.247 1.488a1.146 1.146 0 0 0-.207 1.142l.657 1.939c.07.173.035.38-.069.554a.68.68 0 0 1-.45.311l-1.938.346c-.416.07-.762.347-.9.762l-.727 1.904a.686.686 0 0 1-.38.38c-.174.07-.382.035-.555-.034l-1.73-1.004c-.381-.208-.831-.208-1.177 0L6.68 17.1a.627.627 0 0 1-.554.035.686.686 0 0 1-.38-.381l-.728-1.904a1.19 1.19 0 0 0-.9-.762l-1.938-.346a.68.68 0 0 1-.45-.311c-.104-.173-.104-.346-.07-.554l.658-1.939c.139-.38.035-.83-.207-1.142L.865 8.308c-.103-.139-.173-.346-.138-.52a.68.68 0 0 1 .311-.45L2.77 6.265c.346-.207.554-.588.554-1.003l.035-1.974c0-.173.069-.346.242-.484a.639.639 0 0 1 .415-.173c.035 0 .07 0 .104 0l2.008.277c.38.069.796-.104 1.038-.381l1.316-1.489c.242-.276.727-.276.969 0l1.315 1.489c.277.311.658.45 1.039.38l2.008-.276c.173-.035.38.034.519.138.138.139.242.312.242.485l.035 1.973c0 .415.207.761.554 1.004l1.73 1.073a.68.68 0 0 1 .312.45c.104.208.07.415-.07.554z"/><path d="M12.15 6.438l-4.465 5.089L5.85 9.485a.315.315 0 0 0-.38-.035.315.315 0 0 0-.035.38l2.042 2.25c.035.07.138.105.208.105.069 0 .138-.035.207-.104l4.639-5.331a.247.247 0 0 0-.035-.38c-.07-.07-.242-.035-.346.068z"/></g></svg>