<svg width="30" height="20" viewBox="0 0 30 20" xmlns="http://www.w3.org/2000/svg" xmlns:xlink="http://www.w3.org/1999/xlink"><defs><path id="a" d="M.004.003h29.847V20H.004z"/></defs><g fill="none" fill-rule="evenodd"><mask id="b" fill="#fff"><use xlink:href="#a"/></mask><path d="M28.433 17.184c0 .087-.077.13-.164.13h-2.996c-.033 0-.067.002-.094-.018l-1.856-1.38a1.623 1.623 0 0 0-.96-.319H7.545c-.344 0-.685.12-.96.326l-1.857 1.369c-.027.02-.06.021-.094.021H1.639c-.087 0-.146-.042-.146-.13v-5.707c0-.043.012-.085.044-.115l2.816-2.657c.322-.303.498-.73.498-1.173V2.923c0-.798.662-1.43 1.46-1.43h17.286c.798 0 1.478.632 1.478 1.43V7.53c0 .442.169.87.492 1.173l2.82 2.657c.032.03.046.072.046.115v5.708zm-5.597 1.398h-5.373V17.09h4.9c.033 0 .075-.001.102.019l.37.257v1.216zm-6.866 0H7.09v-1.216l.362-.257c.027-.02.06-.02.094-.02h8.424v1.493zM2.24 4.18a1.42 1.42 0 0 1 1.193-1.392c-.002.045 0 .09 0 .135V7.53a.167.167 0 0 1-.056.115L2.239 8.708V4.18zm25.448 0v4.528L26.55 7.646a.166.166 0 0 1-.057-.115V2.923c0-.046.002-.09 0-.135a1.42 1.42 0 0 1 1.194 1.392zm1.658 6.123l-.24-.229V4.18c0-1.58-1.261-2.837-2.84-2.837h-.256A2.845 2.845 0 0 0 23.597 0H6.31a2.845 2.845 0 0 0-2.412 1.343h-.256C2.063 1.343.746 2.6.746 4.18v5.894l-.241.229c-.322.303-.505.73-.505 1.173v5.708c0 .888.751 1.622 1.64 1.622h2.995c.343 0 .702-.119.978-.324l.059-.036v.237c0 .73.559 1.317 1.289 1.317h15.986c.73 0 1.307-.587 1.307-1.317v-.237l.05.036c.276.205.626.324.97.324h2.995c.888 0 1.582-.734 1.582-1.622v-5.708c0-.442-.183-.87-.506-1.173z" fill="#D0021B" mask="url(#b)"/><path d="M7.836 6.418H22.09V4.254H7.836v2.164zm15.746-2.58c0-.595-.482-1.077-1.076-1.077H7.494c-.594 0-1.076.482-1.076 1.076v2.998c0 .594.482 1.075 1.076 1.075h15.012c.594 0 1.076-.481 1.076-1.075V3.837z" fill="#D0021B"/></g></svg>