<svg width="36" height="20" viewBox="0 0 36 20" xmlns="http://www.w3.org/2000/svg" xmlns:xlink="http://www.w3.org/1999/xlink"><defs><path id="a" d="M.005.03h35.87v19.965H.004z"/></defs><g fill="none" fill-rule="evenodd"><mask id="b" fill="#fff"><use xlink:href="#a"/></mask><path d="M28.215 16.028h-5.87l-.539 1.638a.584.584 0 0 1-.555.402h-6.937a.584.584 0 0 1-.555-.401l-.54-1.639H7.66a3.622 3.622 0 0 1-3.446-2.492L2.141 7.247a3.983 3.983 0 0 1 .561-3.62 3.983 3.983 0 0 1 3.262-1.666H29.91c1.307 0 2.496.608 3.262 1.667.766 1.059.971 2.378.562 3.62l-2.072 6.288a3.622 3.622 0 0 1-3.447 2.492zm6.523-13.533A5.896 5.896 0 0 0 29.91.03H5.964a5.895 5.895 0 0 0-4.827 2.466 5.895 5.895 0 0 0-.831 5.357l2.072 6.288a5.55 5.55 0 0 0 5.281 3.82h4.163l.102.311A2.512 2.512 0 0 0 14.314 20h6.937c1.089 0 2.05-.695 2.39-1.729l.103-.31h4.471a5.55 5.55 0 0 0 5.282-3.82l2.072-6.29a5.895 5.895 0 0 0-.831-5.356z" fill="#1C85A6" mask="url(#b)"/><path d="M29.97 8.416H5.904a.77.77 0 0 0 0 1.537H29.97a.77.77 0 0 0 0-1.537M6.618 6.823c.697 0 1.263-.567 1.263-1.263s-.566-1.263-1.263-1.263c-.696 0-1.262.567-1.262 1.263s.566 1.263 1.262 1.263M11.146 6.823c.696 0 1.263-.567 1.263-1.263s-.567-1.263-1.263-1.263-1.263.567-1.263 1.263.567 1.263 1.263 1.263M15.673 6.823c.697 0 1.263-.567 1.263-1.263s-.566-1.263-1.263-1.263c-.696 0-1.263.567-1.263 1.263s.567 1.263 1.263 1.263M20.2 6.823c.697 0 1.264-.567 1.264-1.263s-.567-1.263-1.263-1.263-1.263.567-1.263 1.263.567 1.263 1.263 1.263M24.728 6.823c.697 0 1.263-.567 1.263-1.263s-.566-1.263-1.263-1.263c-.696 0-1.262.567-1.262 1.263s.566 1.263 1.262 1.263M29.256 6.823c.696 0 1.263-.567 1.263-1.263s-.567-1.263-1.263-1.263-1.263.567-1.263 1.263.567 1.263 1.263 1.263M8.882 11.546c-.696 0-1.263.567-1.263 1.263s.567 1.263 1.263 1.263 1.263-.567 1.263-1.263-.567-1.263-1.263-1.263M13.41 11.546c-.697 0-1.263.567-1.263 1.263s.566 1.263 1.263 1.263c.696 0 1.262-.567 1.262-1.263s-.566-1.263-1.262-1.263M17.937 11.546c-.696 0-1.263.567-1.263 1.263s.567 1.263 1.263 1.263 1.263-.567 1.263-1.263-.567-1.263-1.263-1.263M22.465 11.546c-.697 0-1.263.567-1.263 1.263s.566 1.263 1.263 1.263c.696 0 1.263-.567 1.263-1.263s-.567-1.263-1.263-1.263M26.992 11.546c-.696 0-1.263.567-1.263 1.263s.567 1.263 1.263 1.263 1.263-.567 1.263-1.263-.567-1.263-1.263-1.263" fill="#1C85A6" mask="url(#b)"/></g></svg>